<svg width="400" height="400" viewBox="0 0 400 400" fill="none" xmlns="http://www.w3.org/2000/svg">
<rect width="400" height="400" fill="white"/>
<rect x="192" y="137" width="16" height="126" rx="8" fill="#F2F2F7" stroke="black" stroke-width="4"/>
<rect x="272" y="147" width="16" height="116" rx="8" fill="#F2F2F7" stroke="black" stroke-width="4"/>
<rect x="352" y="137" width="16" height="126" rx="8" fill="#F2F2F7" stroke="black" stroke-width="4"/>
<rect x="332" y="207" width="16" height="56" rx="8" fill="#333333" stroke="black" stroke-width="4"/>
<rect x="312" y="212" width="16" height="51" rx="8" fill="#333333" stroke="black" stroke-width="4"/>
<rect x="232" y="207" width="16" height="56" rx="8" fill="#333333" stroke="black" stroke-width="4"/>
<rect x="292" y="227" width="16" height="36" rx="8" fill="#333333" stroke="black" stroke-width="4"/>
<rect x="252" y="217" width="16" height="46" rx="8" fill="#333333" stroke="black" stroke-width="4"/>
<rect x="212" y="227" width="16" height="36" rx="8" fill="#333333" stroke="black" stroke-width="4"/>
<rect x="112" y="147" width="16" height="116" rx="8" fill="#F2F2F7" stroke="black" stroke-width="4"/>
<rect x="32" y="137" width="16" height="126" rx="8" fill="#F2F2F7" stroke="black" stroke-width="4"/>
<rect x="172" y="207" width="16" height="56" rx="8" fill="#333333" stroke="black" stroke-width="4"/>
<rect x="152" y="202" width="16" height="61" rx="8" fill="#333333" stroke="black" stroke-width="4"/>
<rect x="72" y="222" width="16" height="41" rx="8" fill="#333333" stroke="black" stroke-width="4"/>
<rect x="132" y="217" width="16" height="46" rx="8" fill="#333333" stroke="black" stroke-width="4"/>
<rect x="92" y="187" width="16" height="76" rx="8" fill="#333333" stroke="black" stroke-width="4"/>
<rect x="52" y="207" width="16" height="56" rx="8" fill="#333333" stroke="black" stroke-width="4"/>
</svg>
